<?xml version="1.0" standalone="no"?>
<!DOCTYPE svg PUBLIC "-//W3C//DTD SVG 20010904//EN"
 "http://www.w3.org/TR/2001/REC-SVG-20010904/DTD/svg10.dtd">
<svg version="1.0" xmlns="http://www.w3.org/2000/svg"
 width="849.000000pt" height="1280.000000pt" viewBox="0 0 849.000000 1280.000000"
 preserveAspectRatio="xMidYMid meet">
<metadata>
Created by potrace 1.15, written by Peter Selinger 2001-2017
</metadata>
<g transform="translate(0.000000,1280.000000) scale(0.100000,-0.100000)"
fill="#000000" stroke="none">
<path d="M4170 12742 c0 -122 -86 -236 -272 -358 -247 -163 -336 -250 -359
-353 -8 -35 13 -183 33 -234 14 -36 45 -57 81 -57 16 0 97 27 181 61 143 58
157 61 275 70 l124 10 76 -47 c129 -80 225 -134 239 -134 63 0 129 221 120
404 -3 79 -5 83 -62 171 -32 49 -79 110 -103 134 -25 24 -76 91 -115 150 -98
148 -138 199 -174 222 -17 10 -34 19 -38 19 -3 0 -6 -26 -6 -58z m187 -166
c46 -70 110 -156 141 -190 79 -84 143 -187 154 -244 11 -59 -6 -221 -33 -307
-21 -68 -52 -115 -76 -115 -15 0 -233 128 -233 137 0 5 -9 9 112 -52 83 -42
102 -48 125 -39 53 18 85 126 87 294 1 114 3 109 -137 298 -56 76 -138 191
-182 255 -44 64 -83 117 -87 117 -4 0 -19 -21 -33 -47 -15 -27 -23 -39 -20
-28 4 11 9 44 12 73 l6 53 39 -38 c22 -21 78 -96 125 -167z m-227 -20 c0 -2
-8 -10 -17 -17 -16 -13 -17 -12 -4 4 13 16 21 21 21 13z m-61 -72 c-18 -20
-104 -87 -189 -149 -244 -178 -302 -251 -302 -386 0 -170 43 -190 250 -119
146 51 135 38 -22 -24 -135 -53 -177 -57 -208 -16 -23 31 -53 195 -44 242 15
82 108 174 316 313 69 46 148 104 175 129 60 54 71 59 24 10z"/>
<path d="M3508 11695 c-86 -32 -163 -107 -230 -225 -37 -64 -109 -241 -106
-258 2 -8 22 33 46 90 127 310 267 425 471 388 57 -10 225 -69 218 -76 -2 -2
-39 8 -82 22 -48 16 -114 28 -166 31 -124 8 -173 -11 -263 -98 -38 -38 -67
-72 -63 -76 4 -3 58 18 119 48 103 49 120 54 193 57 71 3 102 -2 260 -44 174
-46 186 -48 350 -53 184 -5 170 -19 -22 -20 -122 -1 -216 16 -357 64 -59 20
-136 39 -174 42 -207 17 -402 -121 -501 -355 -36 -85 -17 -71 27 20 101 209
254 318 446 318 76 0 131 -13 236 -53 78 -30 229 -57 317 -57 36 0 124 9 196
20 74 12 148 18 169 15 87 -15 170 -98 275 -273 59 -100 87 -121 33 -25 -84
149 -164 247 -240 292 -19 12 -31 21 -27 21 19 0 56 -26 116 -84 35 -33 66
-56 68 -49 5 14 -46 115 -86 170 -37 51 -95 83 -150 83 -22 0 -77 -9 -123 -20
-45 -11 -116 -22 -158 -24 -75 -5 -75 -5 -16 4 32 5 105 21 163 35 126 30 171
31 222 5 67 -34 146 -165 226 -375 42 -109 42 -111 51 -103 7 8 -80 227 -128
319 -68 132 -142 198 -223 199 -16 0 -86 -14 -155 -30 -224 -55 -439 -49 -582
14 -123 54 -268 71 -350 41z m449 -91 c-3 -3 -12 -4 -19 -1 -8 3 -5 6 6 6 11
1 17 -2 13 -5z"/>
<path d="M4230 11369 c-62 -42 -165 -145 -187 -186 -16 -31 -22 -34 -49 -30
-17 3 -67 19 -110 37 -199 80 -372 81 -531 3 -146 -71 -286 -238 -349 -415
-25 -70 1 -39 47 60 77 160 196 260 350 293 31 7 95 10 155 6 82 -4 120 -11
205 -42 57 -20 134 -46 172 -58 45 -14 67 -26 67 -37 0 -39 51 -119 105 -168
63 -55 132 -85 187 -80 l33 3 0 60 c-1 33 -5 84 -9 113 l-9 52 49 0 c27 0 115
5 196 12 169 14 238 5 326 -39 77 -39 174 -133 266 -257 44 -58 81 -104 84
-102 2 3 -15 40 -38 83 -112 209 -240 361 -347 411 l-58 27 -250 0 -250 0 3
120 c2 66 6 130 9 143 7 31 -12 28 -67 -9z m50 -11 c0 -18 -2 -20 -9 -8 -6 8
-7 18 -5 22 9 14 14 9 14 -14z m-114 -88 c-47 -49 -86 -96 -86 -104 0 -9 18
-18 51 -25 55 -12 95 -7 122 17 16 14 17 13 17 -18 l0 -33 -67 7 c-36 4 -88
12 -114 17 l-49 11 16 29 c8 17 32 49 52 71 36 40 128 118 139 118 3 0 -33
-40 -81 -90z m-426 -51 c25 -5 79 -22 120 -38 41 -16 93 -34 116 -40 l40 -11
-10 -46 c-11 -45 -11 -45 -46 -39 -19 4 -75 22 -123 41 -244 94 -413 96 -577
8 l-65 -34 40 35 c137 122 309 164 505 124z m420 -115 c58 -8 106 -17 108 -19
3 -2 7 -24 9 -47 l5 -44 -43 3 c-74 5 -193 25 -211 34 -10 5 -16 15 -13 22 2
6 6 24 9 40 7 32 3 31 136 11z m579 -4 c120 -20 213 -88 313 -230 82 -118 83
-126 6 -44 -88 92 -132 125 -215 160 -32 14 -47 23 -33 20 14 -4 44 -9 68 -13
36 -5 42 -3 36 10 -17 45 -166 76 -374 78 -163 2 -165 6 -5 18 61 4 117 9 125
10 8 0 44 -4 79 -9z m-360 -26 c2 -2 -7 -4 -20 -4 -14 0 -35 -7 -47 -16 -21
-14 -22 -14 -22 11 0 24 2 25 43 19 23 -4 44 -8 46 -10z m120 -59 c120 3 126
3 51 -5 -47 -4 -122 -11 -167 -15 -78 -6 -83 -5 -83 14 0 17 4 19 32 10 17 -5
93 -7 167 -4z m269 -2 c-10 -2 -26 -2 -35 0 -10 3 -2 5 17 5 19 0 27 -2 18 -5z
m-653 -18 c62 -11 65 -13 28 -14 -53 -1 -93 -16 -93 -35 0 -32 133 -137 191
-151 40 -10 63 18 55 66 -9 59 -28 91 -61 105 l-30 13 41 1 41 0 18 -95 c14
-75 15 -98 5 -109 -24 -30 -128 8 -202 73 -63 56 -113 163 -75 160 6 0 44 -7
82 -14z"/>
<path d="M3483 11203 c-24 -8 -43 -19 -43 -24 0 -5 30 -9 68 -9 80 0 166 -18
298 -60 98 -31 164 -36 172 -12 6 19 -92 59 -224 93 -128 32 -206 36 -271 12z"/>
<path d="M4053 11083 c-9 -24 28 -50 93 -63 93 -20 152 10 86 44 -25 13 -127
36 -159 36 -8 0 -16 -7 -20 -17z"/>
<path d="M5760 10706 c-116 -24 -134 -31 -126 -52 4 -9 -28 -31 -103 -69 -127
-65 -194 -127 -213 -198 l-12 -45 -29 44 c-73 110 -225 214 -339 232 -119 19
-216 -10 -431 -130 -152 -84 -230 -117 -295 -125 -81 -9 -120 9 -264 123 -221
175 -321 213 -578 221 -263 8 -364 -17 -448 -112 -67 -76 -135 -224 -198 -434
-4 -11 -9 -10 -25 5 -16 14 -19 25 -14 56 6 36 3 42 -78 140 -47 57 -112 131
-146 166 -52 53 -66 62 -96 62 -20 0 -53 9 -75 20 -46 24 -100 26 -139 5 -43
-22 -110 -103 -142 -170 -56 -118 -57 -235 -5 -479 14 -65 29 -153 32 -195 l6
-76 -81 -89 c-84 -91 -97 -117 -88 -166 6 -27 -2 -35 -131 -138 -155 -124
-240 -208 -271 -270 -61 -119 8 -214 227 -310 80 -35 112 -40 112 -17 0 18 16
16 159 -16 139 -32 265 -45 314 -32 23 6 43 10 45 8 8 -7 -78 -123 -118 -159
-51 -46 -137 -87 -196 -94 -56 -6 -57 -22 -1 -22 71 0 156 48 250 142 196 195
302 433 533 1193 77 255 130 398 176 475 27 44 51 67 126 117 159 107 285 128
405 69 29 -14 99 -69 157 -122 177 -163 232 -191 351 -181 70 6 86 12 396 141
272 114 423 97 585 -65 115 -115 184 -232 308 -524 90 -212 120 -271 182 -363
158 -233 382 -346 712 -357 101 -3 112 -2 66 6 -262 47 -367 93 -485 213 -130
132 -181 249 -271 631 -46 194 -85 337 -111 405 -3 8 8 2 26 -14 22 -21 31
-39 31 -60 0 -65 90 -418 166 -651 35 -105 85 -218 101 -228 5 -3 80 2 168 9
404 34 519 84 562 247 32 123 -20 217 -172 316 -104 66 -144 101 -171 147 -36
61 -29 66 10 8 42 -61 85 -97 190 -155 142 -80 181 -154 159 -306 -26 -178
-140 -241 -477 -264 -88 -5 -181 -14 -206 -18 l-45 -9 43 -1 c74 -2 333 20
410 34 139 27 228 83 268 170 19 40 24 67 24 134 0 46 -5 101 -12 123 -16 55
-70 106 -167 158 -141 75 -209 159 -218 269 -3 34 6 123 21 224 14 92 26 189
26 215 0 112 -48 181 -140 201 -71 15 -109 13 -230 -13z m278 -21 c73 -44 89
-157 52 -365 l-19 -105 5 90 c10 172 8 300 -4 321 -21 39 -79 58 -177 58 -119
0 -191 -17 -235 -55 -19 -16 -78 -54 -130 -84 -52 -29 -113 -72 -135 -95 -35
-36 -40 -47 -40 -88 0 -39 8 -60 43 -113 51 -79 55 -109 6 -54 -132 150 -87
269 146 383 73 36 96 52 98 70 2 12 6 22 10 22 4 0 48 9 97 20 114 25 236 23
283 -5z m-2463 -15 c118 -30 226 -87 355 -190 147 -118 177 -133 260 -133 l65
0 -47 -15 c-45 -15 -48 -14 -101 12 -30 14 -108 64 -173 111 -143 101 -249
163 -321 187 -77 26 -273 40 -401 28 -120 -10 -158 -20 -205 -49 -71 -44 -165
-208 -228 -396 -18 -55 -35 -93 -36 -84 -5 21 50 190 88 276 62 138 161 243
243 258 156 29 375 27 501 -5z m-1294 -76 c26 -13 29 -18 18 -32 -8 -9 -14
-19 -16 -21 -1 -1 -12 4 -25 13 -12 9 -30 16 -39 16 -30 0 -104 -59 -139 -111
l-35 -52 0 -151 c0 -83 3 -223 6 -311 4 -88 5 -149 2 -135 -2 14 -17 89 -33
167 -16 78 -32 175 -36 215 -12 144 34 275 130 366 48 45 60 52 96 52 23 0 55
-7 71 -16z m2766 -29 c177 -88 304 -276 383 -569 29 -107 110 -442 110 -454 0
-21 -15 26 -60 192 -62 227 -131 436 -174 531 -67 145 -270 314 -400 331 -54
8 -101 -7 -305 -97 -85 -38 -150 -64 -145 -59 22 21 254 136 309 152 94 28
190 19 282 -27z m-1510 -169 c32 -19 110 -78 173 -130 63 -53 142 -110 174
-127 58 -31 60 -32 123 -20 62 11 188 52 328 105 112 43 62 14 -80 -47 -157
-66 -202 -79 -278 -79 -84 0 -146 34 -281 157 -123 111 -183 151 -255 172
l-46 13 42 -4 c25 -2 66 -19 100 -40z m-372 -19 c-68 -36 -116 -68 -161 -106
-16 -14 -7 -3 22 25 29 29 80 66 115 83 82 41 101 40 24 -2z m1747 -116 c147
-94 238 -227 408 -598 133 -289 173 -354 300 -485 93 -96 130 -125 130 -100 0
4 -29 54 -65 111 -36 58 -65 109 -65 115 0 6 11 -7 25 -29 97 -161 202 -253
359 -311 80 -30 61 -30 -57 0 -130 33 -240 92 -332 178 -114 106 -180 216
-300 498 -149 349 -255 508 -407 610 -69 46 -66 55 4 11z m-1952 -51 c-6 -11
-13 -20 -16 -20 -2 0 0 9 6 20 6 11 13 20 16 20 2 0 0 -9 -6 -20z m-27 -45
c-3 -9 -8 -14 -10 -11 -3 3 -2 9 2 15 9 16 15 13 8 -4z m-223 -42 c0 -6 -11
-58 -24 -115 -14 -56 -56 -258 -95 -448 -39 -190 -89 -413 -112 -495 -43 -158
-77 -248 -78 -208 -1 12 -6 25 -13 29 -8 5 -10 -7 -5 -45 9 -74 -19 -136 -70
-158 -48 -20 -178 -13 -308 17 -118 27 -215 37 -215 21 0 -6 -5 -11 -11 -11
-20 0 -197 87 -233 115 -108 82 -101 179 22 303 46 47 252 217 322 265 8 6
-60 -65 -151 -159 -172 -175 -229 -244 -229 -276 0 -72 107 -148 275 -194 73
-20 372 -74 412 -74 43 0 105 31 127 65 10 14 21 51 26 82 5 32 21 73 36 94
36 53 66 153 139 469 84 364 135 616 135 670 0 25 3 55 6 67 5 19 9 20 25 10
10 -6 19 -17 19 -24z m179 -64 c-17 -40 -75 -218 -129 -394 -110 -355 -164
-518 -217 -645 -47 -115 -147 -308 -179 -345 -26 -31 -23 -18 6 25 25 36 113
303 149 450 17 69 60 267 95 442 80 392 105 500 118 513 13 12 15 21 -55 -290
-64 -284 -127 -620 -126 -668 l1 -32 19 40 c10 22 51 139 90 260 164 511 243
734 255 722 2 -2 -10 -37 -27 -78z"/>
<path d="M3505 9710 c-116 -28 -205 -104 -250 -212 -23 -57 -2 -46 26 13 67
145 223 216 411 188 44 -6 100 -22 124 -34 24 -12 47 -19 49 -15 7 11 -71 46
-133 59 -59 12 -180 13 -227 1z"/>
<path d="M4378 9713 c-16 -2 -28 -9 -28 -14 0 -5 17 -6 43 -2 23 5 74 8 112 7
136 -2 199 -54 305 -252 36 -66 68 -119 71 -116 13 7 -116 237 -160 286 -66
74 -107 91 -221 94 -52 1 -107 0 -122 -3z"/>
<path d="M4300 9603 c0 -10 92 -122 140 -171 94 -95 203 -157 292 -168 35 -4
63 -2 76 5 20 11 21 14 8 39 -55 106 -157 197 -259 231 -74 25 -257 70 -257
64z m188 -60 c104 -29 152 -54 208 -105 38 -35 114 -136 114 -152 0 -3 -22 -6
-50 -6 -62 0 -140 29 -208 79 -48 35 -52 40 -33 46 32 10 55 49 42 73 -20 38
-97 36 -119 -3 -7 -14 -15 -9 -49 32 -59 71 -59 74 -21 66 18 -3 70 -17 116
-30z"/>
<path d="M3810 9563 c-234 -40 -405 -131 -455 -243 -27 -59 -15 -67 87 -53
146 19 187 41 321 171 64 64 117 119 117 124 0 8 -25 9 -70 1z m19 -30 c-7
-10 -44 -50 -82 -89 l-69 -71 -23 23 c-28 28 -71 31 -97 7 -24 -21 -23 -48 2
-71 20 -18 20 -19 -17 -31 -21 -6 -71 -15 -110 -18 -61 -5 -73 -3 -73 9 0 22
53 92 93 122 51 39 173 92 257 111 41 9 80 18 85 20 6 2 18 4 29 4 16 1 17 -1
5 -16z"/>
<path d="M4113 9045 c-43 -30 -49 -114 -12 -154 49 -52 119 -7 119 76 0 73
-56 114 -107 78z"/>
<path d="M4107 8755 c-8 -34 -39 -320 -59 -530 -8 -88 -13 -288 -13 -540 0
-423 6 -500 57 -735 92 -429 298 -693 608 -777 102 -28 353 -25 489 5 293 66
465 171 539 329 25 53 27 68 27 183 -1 114 -3 133 -32 217 -152 438 -495 800
-741 781 -147 -11 -238 -113 -322 -361 -40 -120 -78 -309 -62 -315 5 -1 7 -14
4 -27 -2 -15 0 -25 7 -25 6 0 11 12 11 28 0 41 28 219 45 287 22 86 50 138
106 200 65 70 120 97 200 96 158 0 284 -136 355 -382 34 -120 82 -246 129
-338 20 -40 34 -79 31 -86 -2 -7 -31 -28 -63 -46 -32 -18 -112 -67 -179 -109
-153 -97 -252 -131 -370 -131 -137 1 -241 48 -347 160 -209 218 -359 660 -419
1231 -17 169 -17 643 1 781 13 101 11 169 -2 104z m-28 -667 c2 -166 32 -401
87 -688 4 -19 4 -33 1 -30 -3 3 -31 129 -62 280 l-56 275 7 150 c8 159 21 167
23 13z m-19 -479 c27 -619 114 -954 309 -1186 80 -96 230 -189 352 -218 84
-19 291 -19 405 0 383 66 579 212 601 450 16 169 -92 434 -273 675 -81 107
-199 225 -267 264 -86 51 -231 67 -303 34 -37 -17 -28 -28 24 -28 l47 -1 -52
-18 c-61 -21 -129 -65 -151 -99 -8 -12 -17 -20 -20 -18 -8 8 54 98 95 138 103
100 252 91 416 -25 226 -161 459 -547 498 -823 20 -147 -16 -259 -116 -360
-130 -131 -420 -225 -700 -226 -154 0 -245 19 -363 77 -304 151 -471 525 -512
1150 -10 163 -14 462 -5 453 3 -2 9 -110 15 -239z m1130 -114 c19 -19 32 -35
29 -35 -3 0 -20 16 -39 35 -19 19 -32 35 -29 35 3 0 20 -16 39 -35z m-1013
-157 c-3 -8 -6 -5 -6 6 -1 11 2 17 5 13 3 -3 4 -12 1 -19z m10 -40 c-3 -8 -6
-5 -6 6 -1 11 2 17 5 13 3 -3 4 -12 1 -19z m20 -70 c-3 -8 -6 -5 -6 6 -1 11 2
17 5 13 3 -3 4 -12 1 -19z m1228 -240 c47 -119 85 -221 85 -227 0 -13 -161
-120 -255 -170 -83 -44 -37 -11 109 79 85 53 122 82 124 97 2 11 -13 56 -34
99 -57 124 -135 338 -133 369 1 14 9 -6 104 -247z m-1100 -87 c96 -198 213
-332 346 -396 40 -19 67 -35 59 -35 -29 0 -136 58 -188 101 -108 91 -212 261
-291 476 -22 62 -41 119 -41 125 1 7 16 -30 35 -82 19 -52 55 -137 80 -189z"/>
<path d="M2440 7998 c0 -182 40 -516 91 -770 157 -780 475 -1456 869 -1848
594 -590 1298 -523 2037 193 182 176 398 427 369 427 -2 0 -28 -28 -56 -62
-445 -535 -891 -852 -1298 -923 -369 -65 -722 60 -1032 365 -459 451 -814
1291 -930 2203 -27 213 -24 264 6 92 112 -649 373 -1254 723 -1675 25 -30 35
-46 22 -35 -35 30 -189 237 -256 345 -85 136 -221 410 -293 590 -73 181 -82
198 -82 154 0 -77 131 -490 231 -728 164 -387 351 -679 588 -917 240 -239 473
-359 757 -388 246 -25 540 65 814 249 171 115 480 378 480 408 0 19 -42 -2
-163 -80 -200 -128 -367 -205 -482 -222 -25 -4 -9 4 45 22 216 73 407 181 615
347 117 93 302 271 293 280 -4 5 -61 -43 -125 -106 -316 -307 -631 -484 -975
-550 -156 -30 -383 -23 -535 15 -414 104 -785 394 -1092 856 -303 457 -518
1071 -581 1665 -16 153 -20 175 -30 175 -6 0 -10 -37 -10 -82z m925 -2158 c55
-55 97 -100 95 -100 -3 0 -50 45 -105 100 -55 55 -97 100 -95 100 3 0 50 -45
105 -100z m145 -135 c13 -14 21 -25 18 -25 -2 0 -15 11 -28 25 -13 14 -21 25
-18 25 2 0 15 -11 28 -25z m51 -42 c13 -16 12 -17 -3 -4 -10 7 -18 15 -18 17
0 8 8 3 21 -13z m479 -263 c36 -12 101 -30 145 -41 l80 -19 -60 6 c-33 3 -85
12 -115 20 -55 16 -280 118 -280 128 0 2 37 -12 83 -33 45 -21 111 -48 147
-61z"/>
<path d="M1625 7467 c-64 -17 -194 -68 -202 -79 -9 -15 4 -20 24 -9 50 30 125
53 184 58 149 13 225 -72 264 -293 20 -113 20 -437 0 -774 -18 -308 -20 -700
-5 -830 33 -269 111 -433 245 -512 28 -17 39 -27 25 -23 -14 3 -92 24 -175 45
-443 117 -892 142 -1242 70 -259 -54 -490 -178 -609 -328 -275 -348 -116 -827
418 -1253 571 -456 1492 -823 2692 -1074 129 -27 457 -87 654 -120 18 -4 32
-2 32 4 0 5 -21 13 -47 16 -73 11 -423 82 -563 116 -1313 312 -2235 837 -2534
1444 -116 234 -125 453 -29 648 43 86 174 222 266 276 75 44 216 97 326 123
125 29 432 36 601 14 239 -32 468 -94 745 -203 151 -60 434 -199 582 -286 50
-30 94 -52 97 -49 12 11 -168 117 -369 216 -238 118 -423 196 -638 271 l-147
51 89 -4 c195 -9 427 74 754 271 111 67 145 97 95 83 -172 -47 -384 -63 -503
-37 -175 38 -300 141 -390 319 -91 182 -138 433 -165 882 -29 488 -56 667
-119 801 -30 64 -85 126 -133 150 -50 25 -156 33 -223 16z m210 -31 c123 -57
187 -215 219 -541 19 -190 40 -518 34 -535 -2 -8 -12 76 -22 186 -20 235 -61
564 -77 631 -20 82 -80 190 -99 178 -4 -3 -1 -35 6 -72 20 -92 13 -99 -14 -14
-27 84 -86 155 -147 176 l-40 14 45 0 c27 1 65 -9 95 -23z m113 -2056 c42
-177 143 -305 276 -348 83 -27 145 -28 249 -1 158 40 410 148 487 209 l25 20
-125 1 -125 2 125 8 c69 5 153 15 188 22 80 18 72 9 -71 -73 -217 -124 -383
-190 -545 -217 -90 -14 -104 -14 -177 1 -216 44 -320 222 -355 606 -13 145
-13 291 0 556 19 404 25 371 31 -191 4 -329 11 -568 17 -595z m149 888 c-2
-13 -4 -3 -4 22 0 25 2 35 4 23 2 -13 2 -33 0 -45z m10 -100 c-2 -13 -4 -5 -4
17 -1 22 1 32 4 23 2 -10 2 -28 0 -40z m10 -80 c-3 -7 -5 -2 -5 12 0 14 2 19
5 13 2 -7 2 -19 0 -25z m10 -60 c-3 -8 -6 -5 -6 6 -1 11 2 17 5 13 3 -3 4 -12
1 -19z m93 -353 c0 -5 -5 -3 -10 5 -5 8 -10 20 -10 25 0 6 5 3 10 -5 5 -8 10
-19 10 -25z m118 -201 c26 -32 74 -76 108 -98 33 -23 69 -47 80 -54 10 -7 -10
2 -46 20 -89 44 -175 133 -223 229 -47 96 -48 116 -1 28 19 -37 56 -93 82
-125z m-998 -334 c224 -16 421 -48 650 -106 115 -29 331 -96 326 -101 -1 -2
-49 8 -105 21 -191 47 -312 60 -526 60 -204 1 -310 -12 -428 -50 -27 -9 -50
-14 -53 -12 -7 7 130 46 226 64 46 8 151 19 232 23 82 4 150 10 153 12 9 10
-331 60 -481 71 -580 44 -1096 -149 -1249 -467 -81 -170 -71 -336 35 -551 221
-451 831 -880 1724 -1214 114 -43 318 -110 332 -110 2 0 4 4 4 10 0 5 -95 57
-211 115 -422 213 -664 374 -880 586 -52 52 -63 64 -25 28 402 -376 913 -650
1646 -886 102 -33 227 -70 279 -84 51 -13 89 -25 83 -27 -24 -8 -539 127 -836
218 -1091 337 -1871 825 -2126 1331 -72 141 -85 197 -85 349 1 116 4 143 23
191 132 332 519 521 1102 537 25 1 110 -3 190 -8z m-467 -387 c-227 -223 -260
-521 -94 -851 37 -74 125 -204 179 -268 15 -16 9 -12 -13 11 -22 23 -63 75
-91 116 -220 318 -252 633 -89 879 37 55 157 180 174 180 2 0 -28 -30 -66 -67z"/>
<path d="M6484 6361 c-33 -20 -49 -52 -58 -115 -6 -45 3 -98 15 -90 5 3 7 10
3 15 -12 21 8 102 31 125 64 64 207 9 635 -246 344 -204 560 -300 677 -300 38
0 98 23 126 48 39 35 60 94 65 183 6 114 -24 329 -47 329 -4 0 -13 -29 -20
-65 -16 -80 -63 -160 -116 -197 -126 -88 -321 -48 -740 152 -371 177 -490 211
-571 161z m219 -22 c34 -12 130 -53 212 -91 243 -113 394 -179 480 -210 44
-15 64 -26 45 -22 -19 3 -102 33 -185 66 -161 65 -236 90 -244 83 -20 -20 440
-277 563 -314 89 -27 279 -30 315 -5 40 28 51 73 51 206 l0 122 -30 -34 c-23
-26 -28 -28 -19 -11 6 13 19 47 29 75 l17 51 13 -73 c7 -41 10 -122 8 -180 -3
-91 -7 -114 -28 -151 -32 -57 -77 -81 -152 -81 -123 0 -305 82 -698 314 -351
208 -495 269 -576 247 -31 -9 -34 -8 -23 6 33 38 111 39 222 2z m1117 -304 c0
-11 -66 -45 -85 -44 -15 0 -12 3 10 11 17 6 39 17 50 24 21 15 25 17 25 9z
m-313 -31 c-3 -3 -12 -4 -19 -1 -8 3 -5 6 6 6 11 1 17 -2 13 -5z"/>
<path d="M7220 5463 c-106 -8 -311 -36 -385 -53 -165 -39 -675 -244 -675 -273
0 -5 25 -7 63 -3 264 25 361 16 491 -43 248 -112 401 -341 450 -673 20 -132
20 -369 1 -508 -71 -525 -417 -977 -850 -1113 -115 -36 -180 -46 -371 -57
-186 -11 -255 -25 -359 -75 -291 -140 -470 -487 -696 -1345 -125 -473 -161
-584 -195 -607 -22 -14 -26 -14 -49 1 -28 19 -54 66 -80 146 -26 81 -99 222
-167 323 -130 193 -135 234 -53 407 54 117 77 193 90 303 l7 58 -84 -52 c-118
-74 -165 -110 -229 -176 -75 -77 -114 -134 -134 -193 -33 -100 16 -224 205
-515 117 -180 210 -353 234 -434 9 -30 16 -88 16 -130 0 -41 7 -104 16 -140
26 -103 82 -236 118 -278 30 -34 36 -37 62 -28 38 14 90 112 153 290 53 149
68 193 211 655 278 892 487 1308 707 1406 87 39 246 92 463 154 1182 338 1921
868 2225 1593 75 180 79 205 80 437 0 229 -6 263 -72 394 -147 291 -417 487
-726 526 -74 9 -358 11 -467 3z"/>
<path d="M4970 4957 c0 -26 57 -198 115 -347 254 -654 523 -830 937 -613 125
66 358 243 320 243 -6 0 -56 -18 -111 -40 -55 -21 -130 -47 -168 -56 -83 -20
-248 -22 -323 -4 -249 58 -456 264 -674 669 -80 148 -96 173 -96 148z"/>
<path d="M3560 4705 c0 -13 218 -324 354 -505 468 -626 839 -952 1212 -1067
80 -24 105 -27 244 -27 189 -1 255 15 435 104 284 141 566 420 879 868 32 46
56 86 52 89 -3 3 -53 -40 -111 -96 -314 -302 -649 -496 -957 -556 -444 -86
-888 67 -1395 480 -125 102 -447 423 -588 585 -104 119 -125 141 -125 125z
m466 -505 c391 -380 752 -604 1114 -692 58 -14 140 -23 255 -28 l170 -7 -148
-1 c-236 -3 -405 40 -657 169 -201 102 -320 183 -545 370 -143 118 -216 172
-223 164 -7 -7 83 -128 192 -260 133 -161 408 -434 526 -522 166 -124 310
-197 470 -240 95 -25 280 -23 384 6 163 44 330 134 496 268 137 111 454 443
431 451 -14 5 -39 -10 -181 -104 -125 -83 -266 -164 -285 -164 -5 0 24 19 65
41 163 89 356 230 502 367 37 35 68 61 68 57 0 -4 -51 -76 -114 -159 -501
-667 -970 -912 -1447 -756 -344 113 -700 426 -1136 1000 -112 148 -283 386
-283 395 0 2 44 -44 99 -103 54 -59 165 -172 247 -252z"/>
<path d="M2095 4574 c-189 -25 -306 -58 -428 -121 -204 -105 -310 -282 -280
-466 68 -406 598 -829 1406 -1121 67 -24 147 -51 177 -60 l55 -16 -23 20 c-13
11 -97 56 -185 101 -333 168 -536 313 -716 513 -309 343 -317 716 -20 925 136
96 299 146 528 165 l146 11 -140 24 c-133 22 -434 37 -520 25z"/>
</g>
</svg>
